<svg width="38" height="54" viewBox="0 0 38 54" fill="none" xmlns="http://www.w3.org/2000/svg">
<path d="M35.9679 52.9645C35.9483 53.5164 36.3798 53.9798 36.9317 53.9994C37.4837 54.019 37.947 53.5875 37.9666 53.0355L35.9679 52.9645ZM0.860682 2.00975C0.313783 2.0867 -0.0671909 2.59242 0.00975227 3.13932L1.26361 12.0515C1.34056 12.5984 1.84628 12.9794 2.39318 12.9025C2.94008 12.8255 3.32105 12.3198 3.24411 11.7729L2.12957 3.85093L10.0515 2.73639C10.5984 2.65944 10.9794 2.15372 10.9025 1.60682C10.8255 1.05992 10.3198 0.678948 9.77291 0.755891L0.860682 2.00975ZM28.3554 24.9626L29.1391 24.3415L28.3554 24.9626ZM37.9666 53.0355C38.2362 45.4517 37.0109 34.2748 29.1391 24.3415L27.5716 25.5837C35.0361 35.003 36.2283 45.6373 35.9679 52.9645L37.9666 53.0355ZM29.1391 24.3415C25.5567 19.821 20.4393 15.6307 15.3649 11.9139C12.8219 10.0513 10.2725 8.29555 7.91637 6.67117C5.55351 5.04218 3.39345 3.55105 1.6017 2.20128L0.398302 3.79872C2.23033 5.17884 4.42774 6.69529 6.78117 8.31778C9.14129 9.94489 11.667 11.6845 14.1831 13.5274C19.2268 17.2217 24.1633 21.2827 27.5716 25.5837L29.1391 24.3415Z" fill="white"/>
</svg>
