<svg width="334" height="334" viewBox="0 0 334 334" fill="none" xmlns="http://www.w3.org/2000/svg">
<g filter="url(#filter0_b_678_3736)">
<circle cx="167" cy="167" r="167" fill="url(#paint0_radial_678_3736)"/>
</g>
<circle cx="167" cy="167" r="137" fill="#222222"/>
<path d="M127.794 158.54C124.878 158.54 122.052 158.126 119.316 157.298C116.616 156.47 114.474 155.372 112.89 154.004L115.32 148.55C116.868 149.774 118.758 150.782 120.99 151.574C123.258 152.33 125.526 152.708 127.794 152.708C130.602 152.708 132.69 152.258 134.058 151.358C135.462 150.458 136.164 149.27 136.164 147.794C136.164 146.714 135.768 145.832 134.976 145.148C134.22 144.428 133.248 143.87 132.06 143.474C130.872 143.078 129.252 142.628 127.2 142.124C124.32 141.44 121.98 140.756 120.18 140.072C118.416 139.388 116.886 138.326 115.59 136.886C114.33 135.41 113.7 133.43 113.7 130.946C113.7 128.858 114.258 126.968 115.374 125.276C116.526 123.548 118.236 122.18 120.504 121.172C122.808 120.164 125.616 119.66 128.928 119.66C131.232 119.66 133.5 119.948 135.732 120.524C137.964 121.1 139.89 121.928 141.51 123.008L139.296 128.462C137.64 127.49 135.912 126.752 134.112 126.248C132.312 125.744 130.566 125.492 128.874 125.492C126.102 125.492 124.032 125.96 122.664 126.896C121.332 127.832 120.666 129.074 120.666 130.622C120.666 131.702 121.044 132.584 121.8 133.268C122.592 133.952 123.582 134.492 124.77 134.888C125.958 135.284 127.578 135.734 129.63 136.238C132.438 136.886 134.742 137.57 136.542 138.29C138.342 138.974 139.872 140.036 141.132 141.476C142.428 142.916 143.076 144.86 143.076 147.308C143.076 149.396 142.5 151.286 141.348 152.978C140.232 154.67 138.522 156.02 136.218 157.028C133.914 158.036 131.106 158.54 127.794 158.54ZM167.695 158.54C163.843 158.54 160.369 157.712 157.273 156.056C154.177 154.364 151.747 152.042 149.983 149.09C148.219 146.102 147.337 142.772 147.337 139.1C147.337 135.428 148.219 132.116 149.983 129.164C151.747 126.176 154.177 123.854 157.273 122.198C160.369 120.506 163.843 119.66 167.695 119.66C171.547 119.66 175.021 120.506 178.117 122.198C181.213 123.854 183.643 126.158 185.407 129.11C187.171 132.062 188.053 135.392 188.053 139.1C188.053 142.808 187.171 146.138 185.407 149.09C183.643 152.042 181.213 154.364 178.117 156.056C175.021 157.712 171.547 158.54 167.695 158.54ZM167.695 152.384C170.215 152.384 172.483 151.826 174.499 150.71C176.515 149.558 178.099 147.974 179.251 145.958C180.403 143.906 180.979 141.62 180.979 139.1C180.979 136.58 180.403 134.312 179.251 132.296C178.099 130.244 176.515 128.66 174.499 127.544C172.483 126.392 170.215 125.816 167.695 125.816C165.175 125.816 162.907 126.392 160.891 127.544C158.875 128.66 157.291 130.244 156.139 132.296C154.987 134.312 154.411 136.58 154.411 139.1C154.411 141.62 154.987 143.906 156.139 145.958C157.291 147.974 158.875 149.558 160.891 150.71C162.907 151.826 165.175 152.384 167.695 152.384ZM207.212 158.54C204.296 158.54 201.47 158.126 198.734 157.298C196.034 156.47 193.892 155.372 192.308 154.004L194.738 148.55C196.286 149.774 198.176 150.782 200.408 151.574C202.676 152.33 204.944 152.708 207.212 152.708C210.02 152.708 212.108 152.258 213.476 151.358C214.88 150.458 215.582 149.27 215.582 147.794C215.582 146.714 215.186 145.832 214.394 145.148C213.638 144.428 212.666 143.87 211.478 143.474C210.29 143.078 208.67 142.628 206.618 142.124C203.738 141.44 201.398 140.756 199.598 140.072C197.834 139.388 196.304 138.326 195.008 136.886C193.748 135.41 193.118 133.43 193.118 130.946C193.118 128.858 193.676 126.968 194.792 125.276C195.944 123.548 197.654 122.18 199.922 121.172C202.226 120.164 205.034 119.66 208.346 119.66C210.65 119.66 212.918 119.948 215.15 120.524C217.382 121.1 219.308 121.928 220.928 123.008L218.714 128.462C217.058 127.49 215.33 126.752 213.53 126.248C211.73 125.744 209.984 125.492 208.292 125.492C205.52 125.492 203.45 125.96 202.082 126.896C200.75 127.832 200.084 129.074 200.084 130.622C200.084 131.702 200.462 132.584 201.218 133.268C202.01 133.952 203 134.492 204.188 134.888C205.376 135.284 206.996 135.734 209.048 136.238C211.856 136.886 214.16 137.57 215.96 138.29C217.76 138.974 219.29 140.036 220.55 141.476C221.846 142.916 222.494 144.86 222.494 147.308C222.494 149.396 221.918 151.286 220.766 152.978C219.65 154.67 217.94 156.02 215.636 157.028C213.332 158.036 210.524 158.54 207.212 158.54Z" fill="white"/>
<path d="M137.379 192.8V204H135.299V199.2H129.507V204H127.427V192.8H129.507V197.424H135.299V192.8H137.379ZM143.481 195.36C144.74 195.36 145.7 195.664 146.361 196.272C147.033 196.869 147.369 197.776 147.369 198.992V204H145.481V202.96C145.236 203.333 144.884 203.621 144.425 203.824C143.977 204.016 143.433 204.112 142.793 204.112C142.153 204.112 141.593 204.005 141.113 203.792C140.633 203.568 140.26 203.264 139.993 202.88C139.737 202.485 139.609 202.043 139.609 201.552C139.609 200.784 139.892 200.171 140.457 199.712C141.033 199.243 141.934 199.008 143.161 199.008H145.369V198.88C145.369 198.283 145.188 197.824 144.825 197.504C144.473 197.184 143.945 197.024 143.241 197.024C142.761 197.024 142.286 197.099 141.817 197.248C141.358 197.397 140.969 197.605 140.649 197.872L139.865 196.416C140.313 196.075 140.852 195.813 141.481 195.632C142.11 195.451 142.777 195.36 143.481 195.36ZM143.209 202.656C143.71 202.656 144.153 202.544 144.537 202.32C144.932 202.085 145.209 201.755 145.369 201.328V200.336H143.305C142.153 200.336 141.577 200.715 141.577 201.472C141.577 201.835 141.721 202.123 142.009 202.336C142.297 202.549 142.697 202.656 143.209 202.656ZM157.956 200.576H156.516V204H154.532V200.576H153.092L151.012 204H148.644L151.444 199.584L148.852 195.456H150.98L153.06 198.912H154.532V195.456H156.516V198.912H157.972L160.068 195.456H162.196L159.604 199.584L162.42 204H160.036L157.956 200.576ZM172.307 204V198.336L169.427 203.104H168.563L165.731 198.32V204H163.907V195.456H166.003L169.043 200.8L172.227 195.456H174.099L174.115 204H172.307ZM176.797 195.456H178.797V201.088L183.517 195.456H185.341V204H183.341V198.368L178.637 204H176.797V195.456ZM194.8 197.152H191.808V204H189.808V197.152H186.8V195.456H194.8V197.152ZM203.875 199.776C203.875 199.915 203.865 200.112 203.843 200.368H197.139C197.257 200.997 197.561 201.499 198.051 201.872C198.553 202.235 199.171 202.416 199.907 202.416C200.846 202.416 201.619 202.107 202.227 201.488L203.299 202.72C202.915 203.179 202.43 203.525 201.843 203.76C201.257 203.995 200.595 204.112 199.859 204.112C198.921 204.112 198.094 203.925 197.379 203.552C196.665 203.179 196.11 202.661 195.715 202C195.331 201.328 195.139 200.571 195.139 199.728C195.139 198.896 195.326 198.149 195.699 197.488C196.083 196.816 196.611 196.293 197.283 195.92C197.955 195.547 198.713 195.36 199.555 195.36C200.387 195.36 201.129 195.547 201.779 195.92C202.441 196.283 202.953 196.8 203.315 197.472C203.689 198.133 203.875 198.901 203.875 199.776ZM199.555 196.96C198.915 196.96 198.371 197.152 197.923 197.536C197.486 197.909 197.219 198.411 197.123 199.04H201.971C201.886 198.421 201.625 197.92 201.187 197.536C200.75 197.152 200.206 196.96 199.555 196.96ZM101.399 215.456H103.399V221.088L108.119 215.456H109.943V224H107.943V218.368L103.239 224H101.399V215.456ZM125.119 215.456L121.119 224.688C120.746 225.616 120.292 226.267 119.759 226.64C119.226 227.024 118.58 227.216 117.823 227.216C117.396 227.216 116.975 227.147 116.559 227.008C116.143 226.869 115.802 226.677 115.535 226.432L116.335 224.96C116.527 225.141 116.751 225.285 117.007 225.392C117.274 225.499 117.54 225.552 117.807 225.552C118.159 225.552 118.447 225.461 118.671 225.28C118.906 225.099 119.119 224.795 119.311 224.368L119.455 224.032L115.727 215.456H117.807L120.495 221.776L123.199 215.456H125.119ZM135.097 222.304V225.904H133.225V224H126.633V225.904H124.777V222.304H125.177C125.721 222.283 126.089 221.936 126.281 221.264C126.483 220.581 126.617 219.621 126.681 218.384L126.793 215.456H133.833V222.304H135.097ZM128.505 218.528C128.462 219.509 128.382 220.309 128.265 220.928C128.147 221.547 127.934 222.005 127.625 222.304H131.833V217.152H128.553L128.505 218.528ZM144.883 219.776C144.883 219.915 144.872 220.112 144.851 220.368H138.147C138.264 220.997 138.568 221.499 139.059 221.872C139.56 222.235 140.179 222.416 140.915 222.416C141.854 222.416 142.627 222.107 143.235 221.488L144.307 222.72C143.923 223.179 143.438 223.525 142.851 223.76C142.264 223.995 141.603 224.112 140.867 224.112C139.928 224.112 139.102 223.925 138.387 223.552C137.672 223.179 137.118 222.661 136.723 222C136.339 221.328 136.147 220.571 136.147 219.728C136.147 218.896 136.334 218.149 136.707 217.488C137.091 216.816 137.619 216.293 138.291 215.92C138.963 215.547 139.72 215.36 140.563 215.36C141.395 215.36 142.136 215.547 142.787 215.92C143.448 216.283 143.96 216.8 144.323 217.472C144.696 218.133 144.883 218.901 144.883 219.776ZM140.563 216.96C139.923 216.96 139.379 217.152 138.931 217.536C138.494 217.909 138.227 218.411 138.131 219.04H142.979C142.894 218.421 142.632 217.92 142.195 217.536C141.758 217.152 141.214 216.96 140.563 216.96ZM151.807 215.36C152.639 215.36 153.38 215.541 154.031 215.904C154.692 216.267 155.209 216.779 155.583 217.44C155.956 218.101 156.143 218.864 156.143 219.728C156.143 220.592 155.956 221.36 155.583 222.032C155.209 222.693 154.692 223.205 154.031 223.568C153.38 223.931 152.639 224.112 151.807 224.112C150.655 224.112 149.743 223.728 149.071 222.96V227.104H147.071V215.456H148.975V216.576C149.305 216.171 149.711 215.867 150.191 215.664C150.681 215.461 151.22 215.36 151.807 215.36ZM151.583 222.4C152.319 222.4 152.921 222.155 153.391 221.664C153.871 221.173 154.111 220.528 154.111 219.728C154.111 218.928 153.871 218.283 153.391 217.792C152.921 217.301 152.319 217.056 151.583 217.056C151.103 217.056 150.671 217.168 150.287 217.392C149.903 217.605 149.599 217.915 149.375 218.32C149.151 218.725 149.039 219.195 149.039 219.728C149.039 220.261 149.151 220.731 149.375 221.136C149.599 221.541 149.903 221.856 150.287 222.08C150.671 222.293 151.103 222.4 151.583 222.4ZM165.964 220.576H164.524V224H162.54V220.576H161.1L159.02 224H156.652L159.452 219.584L156.86 215.456H158.988L161.068 218.912H162.54V215.456H164.524V218.912H165.98L168.076 215.456H170.204L167.612 219.584L170.428 224H168.044L165.964 220.576ZM171.914 215.456H173.914V221.088L178.634 215.456H180.458V224H178.458V218.368L173.754 224H171.914V215.456ZM189.341 219.552C190.397 219.872 190.925 220.555 190.925 221.6C190.925 222.368 190.637 222.96 190.061 223.376C189.485 223.792 188.631 224 187.501 224H183.149V215.456H187.325C188.37 215.456 189.186 215.648 189.773 216.032C190.359 216.416 190.653 216.96 190.653 217.664C190.653 218.101 190.535 218.48 190.301 218.8C190.077 219.12 189.757 219.371 189.341 219.552ZM185.053 219.024H187.149C188.183 219.024 188.701 218.667 188.701 217.952C188.701 217.259 188.183 216.912 187.149 216.912H185.053V219.024ZM187.341 222.544C188.439 222.544 188.989 222.187 188.989 221.472C188.989 221.099 188.861 220.821 188.605 220.64C188.349 220.448 187.949 220.352 187.405 220.352H185.053V222.544H187.341ZM196.239 215.36C197.498 215.36 198.458 215.664 199.119 216.272C199.791 216.869 200.127 217.776 200.127 218.992V224H198.239V222.96C197.994 223.333 197.642 223.621 197.183 223.824C196.735 224.016 196.191 224.112 195.551 224.112C194.911 224.112 194.351 224.005 193.871 223.792C193.391 223.568 193.018 223.264 192.751 222.88C192.495 222.485 192.367 222.043 192.367 221.552C192.367 220.784 192.65 220.171 193.215 219.712C193.791 219.243 194.692 219.008 195.919 219.008H198.127V218.88C198.127 218.283 197.946 217.824 197.583 217.504C197.231 217.184 196.703 217.024 195.999 217.024C195.519 217.024 195.044 217.099 194.575 217.248C194.116 217.397 193.727 217.605 193.407 217.872L192.623 216.416C193.071 216.075 193.61 215.813 194.239 215.632C194.868 215.451 195.535 215.36 196.239 215.36ZM195.967 222.656C196.468 222.656 196.911 222.544 197.295 222.32C197.69 222.085 197.967 221.755 198.127 221.328V220.336H196.063C194.911 220.336 194.335 220.715 194.335 221.472C194.335 221.835 194.479 222.123 194.767 222.336C195.055 222.549 195.455 222.656 195.967 222.656ZM202.602 215.456H204.602V221.088L209.322 215.456H211.146V224H209.146V218.368L204.442 224H202.602V215.456ZM206.746 214.448C205.882 214.448 205.22 214.251 204.762 213.856C204.314 213.451 204.084 212.864 204.074 212.096H205.402C205.412 212.48 205.53 212.784 205.754 213.008C205.988 213.232 206.314 213.344 206.73 213.344C207.135 213.344 207.455 213.232 207.69 213.008C207.935 212.784 208.063 212.48 208.074 212.096H209.434C209.423 212.864 209.188 213.451 208.73 213.856C208.271 214.251 207.61 214.448 206.746 214.448ZM220.604 217.152H217.612V224H215.612V217.152H212.604V215.456H220.604V217.152ZM229.68 219.776C229.68 219.915 229.669 220.112 229.648 220.368H222.944C223.061 220.997 223.365 221.499 223.856 221.872C224.357 222.235 224.976 222.416 225.712 222.416C226.651 222.416 227.424 222.107 228.032 221.488L229.104 222.72C228.72 223.179 228.235 223.525 227.648 223.76C227.061 223.995 226.4 224.112 225.664 224.112C224.725 224.112 223.899 223.925 223.184 223.552C222.469 223.179 221.915 222.661 221.52 222C221.136 221.328 220.944 220.571 220.944 219.728C220.944 218.896 221.131 218.149 221.504 217.488C221.888 216.816 222.416 216.293 223.088 215.92C223.76 215.547 224.517 215.36 225.36 215.36C226.192 215.36 226.933 215.547 227.584 215.92C228.245 216.283 228.757 216.8 229.12 217.472C229.493 218.133 229.68 218.901 229.68 219.776ZM225.36 216.96C224.72 216.96 224.176 217.152 223.728 217.536C223.291 217.909 223.024 218.411 222.928 219.04H227.776C227.691 218.421 227.429 217.92 226.992 217.536C226.555 217.152 226.011 216.96 225.36 216.96ZM129.394 237.424C130.429 237.552 131.218 237.904 131.762 238.48C132.306 239.056 132.578 239.776 132.578 240.64C132.578 241.291 132.413 241.883 132.082 242.416C131.751 242.949 131.25 243.376 130.578 243.696C129.917 244.005 129.106 244.16 128.146 244.16C127.346 244.16 126.573 244.048 125.826 243.824C125.09 243.589 124.461 243.269 123.938 242.864L124.834 241.248C125.239 241.589 125.73 241.861 126.306 242.064C126.893 242.256 127.495 242.352 128.114 242.352C128.85 242.352 129.426 242.203 129.842 241.904C130.269 241.595 130.482 241.179 130.482 240.656C130.482 240.133 130.279 239.728 129.874 239.44C129.479 239.141 128.871 238.992 128.05 238.992H127.026V237.568L129.57 234.544H124.482V232.8H132.114V234.192L129.394 237.424ZM142.888 244.112C142.003 244.112 141.208 243.925 140.504 243.552C139.8 243.179 139.251 242.661 138.856 242C138.462 241.328 138.264 240.571 138.264 239.728C138.264 238.885 138.462 238.133 138.856 237.472C139.251 236.811 139.795 236.293 140.488 235.92C141.192 235.547 141.992 235.36 142.888 235.36C143.731 235.36 144.467 235.531 145.096 235.872C145.736 236.213 146.216 236.704 146.536 237.344L145 238.24C144.755 237.845 144.446 237.552 144.072 237.36C143.71 237.157 143.31 237.056 142.872 237.056C142.126 237.056 141.507 237.301 141.016 237.792C140.526 238.272 140.28 238.917 140.28 239.728C140.28 240.539 140.52 241.189 141 241.68C141.491 242.16 142.115 242.4 142.872 242.4C143.31 242.4 143.71 242.304 144.072 242.112C144.446 241.909 144.755 241.611 145 241.216L146.536 242.112C146.206 242.752 145.72 243.248 145.08 243.6C144.451 243.941 143.72 244.112 142.888 244.112ZM156.172 239.776C156.172 239.915 156.161 240.112 156.14 240.368H149.436C149.553 240.997 149.857 241.499 150.348 241.872C150.849 242.235 151.468 242.416 152.204 242.416C153.143 242.416 153.916 242.107 154.524 241.488L155.596 242.72C155.212 243.179 154.727 243.525 154.14 243.76C153.553 243.995 152.892 244.112 152.156 244.112C151.217 244.112 150.391 243.925 149.676 243.552C148.961 243.179 148.407 242.661 148.012 242C147.628 241.328 147.436 240.571 147.436 239.728C147.436 238.896 147.623 238.149 147.996 237.488C148.38 236.816 148.908 236.293 149.58 235.92C150.252 235.547 151.009 235.36 151.852 235.36C152.684 235.36 153.425 235.547 154.076 235.92C154.737 236.283 155.249 236.8 155.612 237.472C155.985 238.133 156.172 238.901 156.172 239.776ZM151.852 236.96C151.212 236.96 150.668 237.152 150.22 237.536C149.783 237.909 149.516 238.411 149.42 239.04H154.268C154.183 238.421 153.921 237.92 153.484 237.536C153.047 237.152 152.503 236.96 151.852 236.96ZM161.912 240.576H160.36V244H158.36V235.456H160.36V238.912H161.96L164.488 235.456H166.632L163.528 239.568L166.84 244H164.488L161.912 240.576ZM175.83 235.456L171.83 244.688C171.457 245.616 171.003 246.267 170.47 246.64C169.937 247.024 169.291 247.216 168.534 247.216C168.107 247.216 167.686 247.147 167.27 247.008C166.854 246.869 166.513 246.677 166.246 246.432L167.046 244.96C167.238 245.141 167.462 245.285 167.718 245.392C167.985 245.499 168.251 245.552 168.518 245.552C168.87 245.552 169.158 245.461 169.382 245.28C169.617 245.099 169.83 244.795 170.022 244.368L170.166 244.032L166.438 235.456H168.518L171.206 241.776L173.91 235.456H175.83ZM177.219 235.456H179.219V238.928H183.523V235.456H185.523V244H183.523V240.624H179.219V244H177.219V235.456ZM197.323 242.304V245.904H195.451V244H188.859V245.904H187.003V242.304H187.403C187.947 242.283 188.315 241.936 188.507 241.264C188.71 240.581 188.843 239.621 188.907 238.384L189.019 235.456H196.059V242.304H197.323ZM190.731 238.528C190.689 239.509 190.609 240.309 190.491 240.928C190.374 241.547 190.161 242.005 189.851 242.304H194.059V237.152H190.779L190.731 238.528ZM203.27 238.272C204.358 238.272 205.19 238.517 205.766 239.008C206.342 239.499 206.63 240.192 206.63 241.088C206.63 242.027 206.31 242.752 205.67 243.264C205.04 243.776 204.144 244.027 202.982 244.016L199.11 244V235.456H201.11V238.256L203.27 238.272ZM207.734 235.456H209.734V244H207.734V235.456ZM202.806 242.544C203.392 242.555 203.84 242.432 204.15 242.176C204.459 241.92 204.614 241.547 204.614 241.056C204.614 240.576 204.464 240.224 204.166 240C203.867 239.776 203.414 239.659 202.806 239.648L201.11 239.632V242.528L202.806 242.544Z" fill="#C4C4C4"/>
<line x1="125" y1="179.5" x2="210" y2="179.5" stroke="white"/>
<defs>
<filter id="filter0_b_678_3736" x="-40" y="-40" width="414" height="414" filterUnits="userSpaceOnUse" color-interpolation-filters="sRGB">
<feFlood flood-opacity="0" result="BackgroundImageFix"/>
<feGaussianBlur in="BackgroundImageFix" stdDeviation="20"/>
<feComposite in2="SourceAlpha" operator="in" result="effect1_backgroundBlur_678_3736"/>
<feBlend mode="normal" in="SourceGraphic" in2="effect1_backgroundBlur_678_3736" result="shape"/>
</filter>
<radialGradient id="paint0_radial_678_3736" cx="0" cy="0" r="1" gradientUnits="userSpaceOnUse" gradientTransform="translate(167 167) rotate(90) scale(167)">
<stop stop-color="#F8AFAF"/>
<stop offset="1" stop-color="#F8AFAF" stop-opacity="0"/>
</radialGradient>
</defs>
</svg>
